<?xml version="1.0" standalone="no"?>
<!DOCTYPE svg PUBLIC "-//W3C//DTD SVG 20010904//EN"
 "http://www.w3.org/TR/2001/REC-SVG-20010904/DTD/svg10.dtd">
<svg version="1.0" xmlns="http://www.w3.org/2000/svg"
 width="1510.000000pt" height="1510.000000pt" viewBox="0 0 1510.000000 1510.000000"
 preserveAspectRatio="xMidYMid meet">
<metadata>
Created by potrace 1.11, written by Peter Selinger 2001-2013
</metadata>
<g transform="translate(0.000000,1510.000000) scale(0.100000,-0.100000)"
fill="#000000" stroke="none">
<path d="M6534 10173 c-4 -10 -12 -31 -19 -48 -7 -16 -48 -118 -90 -225 -43
-107 -83 -208 -90 -225 -7 -16 -70 -174 -140 -350 -138 -351 -138 -349 -153
-385 -6 -14 -21 -50 -33 -80 -12 -30 -27 -68 -34 -85 -22 -55 -60 -150 -61
-155 -1 -7 -23 -62 -34 -85 -5 -11 -19 -45 -30 -75 -12 -30 -26 -64 -31 -75
-4 -11 -35 -90 -69 -175 -33 -85 -65 -164 -70 -175 -5 -11 -57 -141 -115 -290
-59 -148 -113 -284 -121 -302 -8 -17 -14 -33 -14 -36 0 -2 -8 -22 -17 -43 -9
-22 -17 -41 -18 -44 -1 -3 -5 -14 -10 -25 -34 -80 -67 -162 -69 -170 -4 -14
-16 -47 -26 -70 -20 -44 -60 -145 -73 -181 -26 -69 -138 -348 -158 -391 -10
-24 -19 -46 -19 -49 0 -3 -6 -20 -14 -37 -8 -18 -87 -216 -176 -442 -90 -225
-167 -414 -171 -420 -5 -5 -9 -14 -9 -21 0 -6 -7 -29 -16 -50 -9 -22 -16 -39
-15 -39 1 0 -12 -33 -29 -73 -32 -76 -46 -112 -49 -124 -1 -4 -13 -32 -26 -63
-14 -30 -21 -55 -17 -55 4 0 3 -4 -3 -8 -5 -4 -15 -20 -21 -37 -6 -16 -21 -54
-33 -82 l-21 -53 58 -1 c320 -4 875 1 882 7 4 5 56 133 115 284 59 151 113
289 120 305 8 17 48 118 90 225 42 107 83 209 91 227 8 17 14 33 14 36 0 2 8
22 17 43 9 22 18 44 19 49 2 10 137 351 153 390 5 11 19 45 31 75 11 30 25 64
30 75 12 28 151 380 195 495 20 52 47 120 59 150 29 69 38 92 41 105 3 10 140
355 155 390 5 11 43 108 85 215 101 257 134 341 145 365 5 11 29 74 55 140 25
66 50 129 55 140 5 11 52 130 105 265 53 135 102 259 110 277 8 17 15 36 15
42 0 6 5 19 10 29 15 25 192 475 193 490 0 6 4 12 9 12 4 0 8 6 8 13 0 7 23
69 51 138 28 68 52 129 53 134 2 6 9 24 15 40 7 17 19 47 27 68 l13 37 -460 0
c-429 0 -460 -1 -465 -17z"/>
<path d="M8334 10093 c-20 -54 -41 -102 -46 -107 -4 -6 -8 -16 -8 -24 0 -7
-10 -34 -21 -60 -12 -25 -22 -51 -24 -57 -2 -12 -13 -40 -30 -80 -7 -16 -29
-73 -49 -125 -21 -52 -44 -109 -52 -127 -7 -17 -14 -34 -14 -38 0 -4 -6 -21
-14 -38 -8 -18 -37 -90 -65 -162 -28 -71 -112 -285 -187 -475 -75 -190 -146
-372 -158 -405 -11 -33 -24 -62 -27 -65 -3 -3 -14 -30 -24 -60 -9 -30 -21 -59
-26 -64 -5 -6 -9 -16 -9 -23 0 -7 -8 -32 -19 -56 -10 -23 -37 -89 -60 -147
-22 -58 -46 -118 -52 -135 -7 -16 -13 -32 -14 -35 -1 -3 -5 -14 -10 -25 -47
-117 -75 -191 -75 -202 0 -7 -4 -13 -10 -13 -5 0 -10 -7 -10 -15 0 -8 -15 -52
-34 -97 -40 -101 -43 -107 -71 -183 -23 -59 -193 -491 -210 -530 -4 -11 -9
-22 -9 -25 -2 -6 -44 -113 -62 -155 -7 -16 -22 -52 -33 -79 -12 -27 -21 -53
-21 -58 0 -5 -8 -28 -19 -51 -10 -23 -28 -69 -40 -102 -13 -33 -27 -65 -33
-72 -6 -7 -8 -13 -5 -13 3 0 -12 -44 -35 -97 -22 -54 -41 -102 -42 -108 -2 -5
-8 -21 -13 -35 -17 -39 -137 -344 -139 -350 0 -3 -5 -16 -11 -30 -22 -51 -115
-285 -117 -295 -3 -12 -6 -19 -57 -143 -21 -51 -38 -93 -38 -95 1 -3 -22 -59
-32 -79 -5 -10 -9 -24 -9 -32 0 -13 5 -13 43 0 23 9 49 17 57 19 8 2 35 10 60
18 25 8 126 40 225 72 99 31 265 84 369 117 105 33 195 61 200 63 6 1 18 5 26
8 8 3 89 29 180 57 91 28 226 71 300 95 74 24 169 53 210 65 41 12 81 27 88
32 6 6 12 8 12 4 0 -3 16 0 35 8 20 9 36 15 38 15 1 -1 22 5 47 12 56 16 52
15 70 22 8 3 96 32 195 62 287 89 529 166 545 172 8 3 20 7 25 9 6 1 62 19
125 39 63 20 122 38 130 40 8 2 34 10 57 19 l43 15 17 -57 c9 -31 18 -61 19
-67 9 -40 34 -127 39 -135 3 -5 8 -19 10 -29 4 -20 33 -123 43 -151 3 -8 6
-19 8 -25 1 -5 12 -44 24 -85 12 -41 25 -88 30 -105 5 -16 23 -77 40 -135 18
-58 34 -117 37 -133 3 -15 10 -30 15 -33 6 -4 218 -6 472 -6 589 1 529 -2 521
20 -3 9 -26 85 -50 167 -24 83 -59 202 -78 265 -20 63 -40 135 -47 160 -6 25
-15 54 -19 65 -9 20 -98 323 -106 361 -3 12 -11 40 -19 63 -9 22 -13 41 -9 41
3 0 1 6 -5 13 -12 14 -27 87 -18 87 3 0 72 18 154 41 81 23 152 42 157 43 72
18 105 30 105 38 0 11 -28 114 -37 138 -3 8 -7 20 -9 25 -1 6 -14 51 -29 100
-15 50 -31 104 -35 120 -5 17 -20 68 -34 115 -15 47 -28 92 -30 100 -2 8 -12
42 -22 75 -10 33 -18 62 -19 65 -6 36 -32 100 -41 100 -6 0 -46 -11 -90 -24
-86 -27 -196 -59 -204 -60 -3 -1 -11 -5 -17 -9 -7 -5 -13 -6 -13 -4 0 3 -21
-1 -47 -9 -25 -8 -47 -13 -48 -12 -3 4 -46 149 -50 168 -2 8 -14 47 -26 85
-12 39 -23 75 -25 80 -1 6 -14 51 -30 100 -15 50 -29 95 -30 100 -2 12 -34
123 -42 145 -8 24 -27 89 -35 125 -1 6 -6 16 -10 23 -5 6 -6 12 -2 12 3 0 1 8
-4 18 -6 11 -12 30 -15 43 -3 13 -17 62 -32 109 -14 47 -30 99 -34 115 -5 17
-23 77 -40 135 -17 58 -35 119 -40 135 -5 17 -22 75 -39 130 -41 137 -82 277
-87 295 -2 8 -19 67 -38 130 -87 288 -137 456 -141 470 -2 8 -31 107 -65 220
-91 303 -100 333 -105 353 -2 10 -16 56 -30 102 l-27 85 -363 0 -363 0 -38
-97z m297 -1598 c2 -17 5 -34 9 -37 1 -2 3 -10 5 -18 2 -8 20 -69 40 -135 20
-66 58 -194 85 -285 49 -169 78 -266 125 -425 15 -49 31 -103 35 -120 13 -47
40 -138 47 -155 3 -8 8 -23 10 -34 2 -10 11 -43 21 -75 10 -31 29 -94 42 -141
12 -47 26 -94 30 -105 4 -11 18 -54 30 -95 11 -41 25 -85 30 -98 9 -19 6 -24
-18 -33 -29 -12 -116 -39 -141 -44 -9 -2 -54 -16 -101 -30 -116 -36 -413 -126
-425 -129 -5 -2 -30 -9 -55 -16 -25 -7 -49 -14 -55 -16 -35 -9 -538 -162 -562
-171 -15 -6 -17 19 -4 45 5 9 28 67 51 127 23 61 46 119 50 130 15 32 141 359
143 370 1 6 4 12 7 15 3 3 14 30 24 60 11 30 26 66 33 80 7 14 13 32 13 40 0
9 4 20 8 25 5 6 17 33 27 60 9 28 23 64 30 80 28 66 40 100 37 108 -1 4 3 7 8
7 6 0 10 6 10 13 0 6 41 116 91 242 50 127 92 235 93 240 2 6 7 19 11 30 41
101 182 464 189 488 7 21 26 23 27 2z"/>
<path d="M3517 10144 c-21 -14 -51 -33 -67 -42 -15 -9 -54 -33 -87 -52 -32
-19 -63 -37 -68 -40 -22 -11 -312 -184 -346 -206 -19 -13 -40 -24 -47 -24 -7
0 -12 -4 -12 -10 0 -5 -4 -10 -9 -10 -5 0 -47 -23 -93 -50 -46 -28 -90 -55
-98 -60 -8 -4 -89 -53 -179 -107 -91 -54 -171 -99 -178 -101 -7 -2 -13 -8 -13
-13 0 -5 -4 -9 -10 -9 -5 0 -34 -16 -64 -35 -30 -19 -58 -35 -61 -35 -4 0 -19
-8 -33 -19 -15 -10 -151 -92 -302 -181 -151 -89 -298 -178 -327 -196 -28 -19
-53 -34 -56 -34 -2 0 -44 -25 -93 -55 -49 -29 -107 -64 -129 -76 -22 -11 -59
-34 -83 -50 -24 -16 -45 -29 -46 -29 -2 0 -83 -47 -181 -105 -97 -58 -180
-105 -185 -105 -5 0 -10 -4 -12 -9 -2 -5 -19 -17 -38 -28 -70 -38 -285 -166
-301 -180 -9 -7 -19 -10 -22 -6 -4 3 -7 2 -7 -4 0 -6 -8 -14 -17 -17 -10 -3
-27 -12 -38 -19 -11 -7 -86 -52 -167 -100 l-148 -88 0 -505 c0 -350 3 -504 11
-504 6 0 25 -11 43 -25 18 -14 35 -25 39 -25 3 0 176 -102 384 -226 208 -125
396 -237 418 -249 22 -13 78 -46 123 -74 46 -28 88 -51 93 -51 5 0 9 -4 9 -10
0 -5 4 -10 9 -10 5 0 124 -68 263 -151 139 -84 267 -160 285 -170 40 -22 102
-60 128 -77 11 -6 27 -15 35 -19 8 -4 17 -10 20 -13 3 -4 23 -17 45 -29 22
-12 58 -33 80 -46 22 -13 45 -27 51 -30 42 -22 381 -226 391 -235 7 -5 14 -10
17 -10 3 0 57 -31 120 -70 64 -38 120 -70 126 -70 5 0 10 -3 10 -7 0 -5 10
-13 23 -19 19 -9 264 -154 375 -222 20 -12 46 -27 57 -32 11 -6 49 -28 84 -50
34 -22 65 -40 68 -40 2 0 20 -12 38 -26 19 -14 35 -24 37 -23 2 1 22 -10 45
-24 24 -15 47 -27 53 -27 5 0 10 -4 10 -8 0 -4 12 -12 28 -18 15 -6 31 -12 36
-15 4 -2 7 43 6 101 -1 108 -1 127 0 218 0 29 -2 57 -5 61 -3 5 -1 11 4 13 5
1 6 23 2 48 -4 25 -4 59 -1 75 3 17 3 49 -1 72 -3 23 -2 44 2 45 4 2 4 23 0
48 -4 25 -4 59 -1 75 4 17 3 39 0 50 -4 11 -5 28 -1 37 3 9 4 47 1 83 l-5 66
-150 90 c-82 49 -157 92 -165 96 -8 3 -39 21 -68 40 -29 18 -54 33 -56 33 -3
0 -41 23 -86 50 -45 28 -83 50 -85 50 -2 0 -40 23 -85 50 -45 28 -83 50 -84
50 -2 0 -57 32 -122 72 -66 39 -137 81 -159 92 -22 12 -60 35 -85 51 -25 15
-65 39 -90 53 -25 13 -57 31 -72 40 -59 36 -333 198 -372 220 -22 13 -54 32
-71 42 -16 11 -48 29 -70 41 -22 12 -43 27 -47 33 -4 6 -8 7 -8 3 0 -4 -19 5
-42 21 -24 16 -50 32 -58 35 -8 4 -37 20 -65 37 -27 16 -79 47 -115 67 -36 20
-67 39 -70 42 -3 3 -25 17 -50 30 -25 13 -52 30 -61 37 -8 8 -18 14 -22 14 -3
0 -85 47 -182 105 -97 58 -182 105 -187 105 -6 0 -3 9 7 20 10 11 22 17 26 14
5 -3 9 -1 9 3 0 8 29 26 63 39 9 3 17 10 17 15 0 5 4 9 9 9 4 0 62 32 127 71
66 40 131 79 146 88 16 9 99 59 185 111 87 52 165 100 175 105 17 10 168 101
236 142 20 13 52 30 70 39 17 9 32 20 32 25 0 5 5 9 11 9 8 0 196 110 309 180
55 34 158 97 175 106 11 6 96 57 188 112 93 56 172 102 178 102 5 0 9 5 9 10
0 6 7 10 15 10 8 0 15 4 15 9 0 5 8 11 18 15 18 6 43 20 130 74 29 17 55 32
58 32 2 0 10 5 17 11 7 5 113 71 237 144 278 166 272 162 271 208 -1 21 -2 45
-2 55 0 9 0 53 0 97 0 44 0 87 1 95 0 8 0 26 -1 40 0 14 0 32 0 40 1 8 1 26 0
40 0 14 -1 39 0 55 2 112 1 137 -4 144 -3 5 -1 11 4 13 5 1 6 23 2 48 -4 25
-4 59 -1 75 3 17 3 47 -1 68 -3 20 -3 40 2 42 4 3 6 15 3 28 -3 12 -5 39 -5
60 0 20 -1 37 -2 36 -1 0 -19 -11 -40 -25z"/>
<path d="M11538 10143 c-2 -9 -2 -228 0 -487 l3 -471 126 -75 c70 -41 142 -85
160 -97 18 -12 33 -20 33 -16 0 3 8 -1 18 -9 9 -9 31 -23 47 -32 17 -9 44 -25
60 -36 17 -10 41 -25 55 -33 14 -8 192 -114 395 -237 204 -122 382 -230 397
-239 16 -9 155 -92 310 -186 155 -93 287 -172 293 -175 5 -3 28 -16 50 -30 23
-14 50 -30 60 -37 11 -6 123 -74 250 -150 126 -76 235 -139 242 -141 7 -2 13
-8 13 -13 0 -5 4 -9 10 -9 18 0 211 -123 208 -132 -3 -9 -40 -32 -148 -93 -25
-13 -66 -37 -91 -52 -25 -16 -92 -55 -148 -88 -56 -33 -119 -70 -139 -82 -55
-33 -180 -106 -210 -122 -15 -8 -28 -18 -30 -23 -2 -4 -8 -8 -13 -8 -5 0 -51
-25 -101 -55 -50 -30 -94 -55 -99 -55 -4 0 -9 -3 -11 -7 -2 -5 -19 -17 -38
-27 -41 -23 -122 -69 -165 -95 -16 -10 -48 -28 -70 -41 -22 -12 -74 -42 -115
-67 -41 -25 -82 -49 -90 -53 -8 -5 -44 -26 -79 -47 -69 -41 -108 -64 -223
-131 -40 -24 -91 -54 -113 -68 -22 -13 -58 -34 -80 -46 -22 -12 -48 -27 -57
-33 -10 -5 -74 -44 -144 -85 -70 -41 -148 -87 -173 -102 -25 -15 -79 -47 -119
-70 -41 -24 -81 -47 -91 -53 -9 -5 -53 -32 -99 -58 l-82 -49 0 -499 c0 -274 2
-499 5 -499 3 0 18 8 33 19 29 20 289 176 331 198 14 8 55 32 90 53 34 22 67
40 72 40 5 0 9 4 9 8 0 4 12 13 28 20 15 6 41 21 57 32 17 11 37 23 45 27 14
8 84 49 165 98 18 11 100 60 182 108 81 49 157 94 167 100 11 7 43 26 70 43
28 17 58 34 66 38 16 7 40 22 80 47 52 34 601 359 606 359 3 0 10 5 17 10 7 6
71 45 142 87 72 41 142 84 157 94 15 11 32 19 38 19 5 0 10 3 10 8 0 4 13 13
29 20 15 7 48 25 72 41 49 31 235 142 259 154 8 4 29 16 45 27 17 11 44 27 62
35 17 8 37 20 45 27 7 7 24 19 38 26 25 13 35 19 182 107 46 27 99 58 118 68
19 11 46 28 59 38 13 11 28 19 33 19 5 0 16 6 23 13 7 6 61 39 119 72 l106 60
-3 504 -2 504 -34 19 c-19 11 -140 83 -270 160 -130 77 -249 148 -266 158 -83
48 -110 65 -115 71 -3 3 -10 8 -16 10 -5 2 -124 72 -262 154 -307 182 -288
171 -389 231 -45 27 -139 83 -208 124 -69 41 -140 84 -159 95 -70 41 -162 96
-176 105 -23 15 -152 91 -185 110 -24 14 -226 134 -390 233 -16 9 -38 20 -47
23 -10 4 -18 10 -18 15 0 5 -4 9 -9 9 -5 0 -49 24 -98 53 -268 163 -513 307
-522 307 -5 0 -11 4 -13 8 -1 5 -34 26 -71 48 -38 21 -81 47 -95 56 -15 9 -38
23 -52 31 -47 25 -75 42 -80 47 -7 7 -67 40 -73 40 -3 0 -7 -8 -9 -17z"/>
</g>
</svg>
