<svg id="Layer_1" data-name="Layer 1" xmlns="http://www.w3.org/2000/svg" viewBox="0 0 755 264"><title>a4e</title><path d="M-757,356v50L-935,300V250l178-106v49l-137.11,82.37Z" transform="translate(935 -142.88)"/><path d="M-713,406l105-263h46L-666,406Z" transform="translate(935 -142.88)"/><path d="M-516.38,142.88-480,143l47.24,159,21.48-6.33,12.51,42.45-21.47,6L-402,406h-50l-14-48-154.38,48.88Zm38.71,172.31L-504,226l-43,110Z" transform="translate(935 -142.88)"/><path d="M-220.89,275.37-358,193V144l178,106v50L-358,406V356Z" transform="translate(935 -142.88)"/></svg>